<svg width="100" height="16" viewBox="0 0 100 16" fill="none" xmlns="http://www.w3.org/2000/svg">
<path d="M93.4326 9.72088C93.494 9.1171 93.7396 8.63408 94.1079 8.21144C94.4762 7.7888 94.9059 7.60767 95.397 7.60767C96.5634 7.60767 97.1159 8.3322 97.1159 9.72088H93.4326ZM100.001 10.3246C100.001 8.87559 99.5713 7.72842 98.7733 6.82276C97.9753 5.97748 96.8703 5.55484 95.397 5.55484C93.9851 5.55484 92.8187 6.03786 91.8365 7.0039C90.8544 7.96993 90.3632 9.23786 90.3632 10.9284C90.3632 12.4982 90.793 13.7662 91.7138 14.6114C92.6346 15.5171 93.8623 15.9397 95.4584 15.9397C96.9317 15.9397 98.1594 15.6982 99.0802 15.2152V13.0416C98.2208 13.585 97.3 13.8265 96.195 13.8265C94.4762 13.8265 93.5554 13.102 93.4326 11.653H100.001V10.3246ZM89.7494 12.8605C89.0127 13.3435 88.2761 13.585 87.478 13.585C86.6186 13.585 85.9434 13.3435 85.4523 12.8605C84.9612 12.3775 84.7156 11.653 84.7156 10.8077C84.7156 9.90201 84.9612 9.17748 85.5136 8.69446C86.0047 8.21144 86.7414 7.90956 87.6008 7.90956C88.3988 7.90956 89.1355 8.15106 89.7494 8.63408V6.03786C89.1969 5.73597 88.3375 5.55484 87.1711 5.55484C85.4523 5.55484 84.1017 6.03786 83.0582 7.0039C82.0146 7.96993 81.5235 9.29824 81.5235 10.9888C81.5235 12.4379 82.0146 13.6454 82.9354 14.5511C83.9176 15.4567 85.1453 15.9397 86.68 15.9397C88.0305 15.9397 89.0127 15.7586 89.688 15.336V12.8605H89.7494ZM77.0422 13.1624C76.6739 13.585 76.1828 13.7662 75.6303 13.7662C75.2006 13.7662 74.8936 13.6454 74.6481 13.4039C74.4025 13.1624 74.2798 12.9209 74.2798 12.5586C74.2798 11.7737 74.7709 11.3511 75.8144 11.2303L77.6561 10.9888V11.653C77.5947 12.2567 77.4105 12.8001 77.0422 13.1624ZM80.5413 9.78125C80.5413 6.94352 79.1294 5.55484 76.2442 5.55484C75.6303 5.55484 74.955 5.61522 74.2184 5.79635C73.4817 5.97748 72.8679 6.15861 72.4381 6.40012V8.69446C73.5431 7.96993 74.6481 7.66805 75.8758 7.66805C77.0422 7.66805 77.6561 8.21144 77.6561 9.29823L74.955 9.6605C72.6223 9.96239 71.5173 11.0492 71.5173 12.9813C71.5173 13.8869 71.8243 14.6114 72.3768 15.1548C72.9292 15.6982 73.7273 16.0001 74.6481 16.0001C75.9372 16.0001 76.9808 15.4567 77.6561 14.3699H77.7175V15.6982H80.664V9.78125H80.5413ZM70.351 1.08691H67.2816V15.6982H70.351V1.08691ZM60.4676 4.22654C62.1251 4.22654 62.9845 4.95107 62.9845 6.33974C62.9845 7.7888 62.1251 8.51333 60.4676 8.51333H59.2399V4.22654H60.4676ZM60.7132 10.9284C62.432 10.9284 63.7825 10.5058 64.7647 9.6605C65.8083 8.81522 66.2994 7.66805 66.2994 6.27937C66.2994 3.32088 64.5192 1.87182 60.9587 1.87182H55.9863V15.6982H59.1785V10.9284H60.7132Z" fill="white"/>
<path d="M44.9365 9.4795C44.9979 8.87572 45.2434 8.3927 45.6117 7.97006C45.9801 7.54742 46.4098 7.36629 46.9009 7.36629C48.0672 7.36629 48.6197 8.09082 48.6197 9.4795H44.9365ZM51.5049 10.0833C51.5049 8.63421 51.0752 7.48704 50.2772 6.58138C49.4791 5.7361 48.3742 5.31346 46.9009 5.31346C45.489 5.31346 44.3226 5.79648 43.3404 6.76251C42.3582 7.72855 41.8671 8.99648 41.8671 10.687C41.8671 12.2569 42.2968 13.5248 43.2176 14.3701C44.1384 15.2757 45.3662 15.6984 46.9623 15.6984C48.4356 15.6984 49.6633 15.4569 50.5841 14.9738V12.8003C49.7247 13.3436 48.8039 13.5852 47.6989 13.5852C45.9801 13.5852 45.0592 12.8606 44.9365 11.4116H51.5049V10.0833ZM40.8235 9.35874C40.8235 6.64176 39.6572 5.31346 37.3858 5.31346C36.0967 5.31346 35.0531 5.85685 34.3165 7.00402H34.2551V0.785156H31.1857V15.3965H34.2551V9.78138C34.2551 9.17761 34.4392 8.63421 34.7462 8.21157C35.1145 7.78893 35.5442 7.6078 36.0967 7.6078C37.1403 7.6078 37.6928 8.33233 37.6928 9.78138V15.3965H40.7621V9.35874H40.8235ZM30.2649 13.0418C29.8966 13.2229 29.5896 13.3436 29.2827 13.3436C28.4233 13.3436 28.055 12.8003 28.055 11.7738V7.78893H30.3263V5.55497H28.055V2.5361L24.9856 3.38138V5.49459H23.3281V7.72855H24.9856V12.2569C24.9856 14.4908 26.0906 15.5776 28.2391 15.5776C29.1599 15.5776 29.8352 15.4569 30.3263 15.2153V13.0418H30.2649Z" fill="white"/>
<path d="M6.99863 1.50977H1.53516V6.88335" stroke="#E41F1A" stroke-width="4" stroke-miterlimit="10"/>
<path d="M9.33105 1.50977H14.6644V6.88335" stroke="#E41F1A" stroke-width="4" stroke-miterlimit="10"/>
<path d="M6.99863 14.4908H1.53516V9.11719" stroke="#E41F1A" stroke-width="4" stroke-miterlimit="10"/>
<path d="M9.33105 14.4908H14.6644V9.11719" stroke="#E41F1A" stroke-width="4" stroke-miterlimit="10"/>
</svg>
