<svg width="688" height="688" viewBox="0 0 688 688" fill="none" xmlns="http://www.w3.org/2000/svg">
<g clip-path="url(#clip0_400_4329)">
<rect width="688" height="688" fill="#F0AC87"/>
<path d="M-50 14C-50 -21.3462 -21.3462 -50 14 -50H688V688H-50V14Z" fill="#F7624C"/>
<path d="M-50 14C-50 -21.3462 -21.3462 -50 14 -50H688V688H-50V14Z" fill="#F0AC87"/>
<path d="M0 64C0 28.6538 28.6538 0 64 0H688V688H0V64Z" fill="#F7624C"/>
<path d="M50 114C50 78.6538 78.6538 50 114 50H688V688H50V114Z" fill="#F0AC87"/>
<path d="M100 164C100 128.654 128.654 100 164 100H688V688H100V164Z" fill="#F7624C"/>
<path d="M150 214C150 178.654 178.654 150 214 150H688V688H150V214Z" fill="#F0AC87"/>
<path d="M200 264C200 228.654 228.654 200 264 200H688V688H200V264Z" fill="#F7624C"/>
<path d="M250 314C250 278.654 278.654 250 314 250H688V688H250V314Z" fill="#F0AC87"/>
<path d="M300 364C300 328.654 328.654 300 364 300H688V688H300V364Z" fill="#F7624C"/>
<path d="M350 414C350 378.654 378.654 350 414 350H688V688H350V414Z" fill="#F0AC87"/>
<path d="M400 464C400 428.654 428.654 400 464 400H688V688H400V464Z" fill="#F7624C"/>
<path d="M450 514C450 478.654 478.654 450 514 450H688V688H450V514Z" fill="#F0AC87"/>
<path d="M500 564C500 528.654 528.654 500 564 500H688V688H500V564Z" fill="#F7624C"/>
<path d="M550 614C550 578.654 578.654 550 614 550H738V738H550V614Z" fill="#F0AC87"/>
<path d="M600 664C600 628.654 628.654 600 664 600H788V788H600V664Z" fill="#F7624C"/>
<path d="M650 714C650 678.654 678.654 650 714 650H838V838H650V714Z" fill="#F0AC87"/>
</g>
<defs>
<clipPath id="clip0_400_4329">
<rect width="688" height="688" fill="white"/>
</clipPath>
</defs>
</svg>
